Patient4_TMGait_0pt3_03_right_19_EMG.mot
version=1
nRows=23
nColumns=33
inDegrees=no
endheader
time	1LAddLong	2LGlutMax	3LGlutMed	4LIliopsoas	5LSemiMemb	6LBicFemLong	7LRecFem	8LVastMed	9LVastLat	10LGasMed	11LTibAnt	12lTibPost	13LPeroneusLong	14LSol	15LExtDigLong	16LFlexDigLong	17RAddLong	18RGlutMax	19RGlutMed	20RIliopsoas	21RSemiMemb	22RBicFemLong	23RRecFem	24RVastMed	25RVastLat	26RGasMed	27RTibAnt	28RTibPost	29RPeroneusLong	30RSol	31RExtDigLong	32RFlexDigLong
37.595	-0.002899	-0.31509	-0.21194	0.01236	-0.00824	-0.022736	-0.007019	0.011749	0.032349	-0.052643	-0.017242	0.003815	0.14954	-0.27771	0.030823	0.001678	0.034637	0.11444	-0.14786	0.015411	0.046387	-0.032349	0.035248	-0.11887	0.012207	-0.005798	-0.30121	-0.006866	-0.05188	-0.10284	0.001068	-0.006104
37.596	-0.002289	-0.33722	-0.33417	0.024414	-0.007477	0.005188	-0.030212	0.013733	0.057526	-0.005493	0.010834	0.009613	-0.22324	-0.064697	0.035553	-0.003967	0.014954	0.057526	-0.14145	-0.031891	0.045013	-0.026855	0.011292	-0.054474	0.03479	-0.004272	0.24475	-0.005798	0.11078	-0.14572	-0.003052	-0.00412
37.597	0.003815	-0.29022	-0.36362	0.000763	-0.020294	-0.018311	-0.005188	-0.024719	-0.013885	-0.011597	0.018463	0.008392	-0.020142	0.036621	0.008087	-0.011292	0.027924	0.067444	-0.16556	-0.026703	0.054626	-0.004578	0.066528	-0.023193	0.028381	-0.003662	0.04715	-0.00351	0.18005	-0.083618	-0.003052	0.001831
37.598	0.003815	-0.18662	0.011292	-0.010986	0.009003	-0.027771	0.071259	-0.019379	-0.004883	-0.007019	0.009766	0.007477	0.054321	0.083618	0.052185	-0.006104	0.019836	0.13428	-0.13306	0.043945	0.063019	0.001068	0.049133	-0.083466	0.015564	-0.003662	-0.18265	-0.002136	0.063629	0.00885	-0.00351	-0.005341
37.599	-0.003357	-0.177	0.28625	0.001831	0.002899	-0.038757	0.04364	-0.005035	0.021057	-0.039368	-0.00351	0.002289	-0.46066	0.081482	0.055847	0.000763	-0.004425	0.12253	-0.13214	0.12329	0.066681	0.009308	0.014954	-0.078125	0.009918	-0.002899	0.11627	-0.002136	0.061188	-0.032196	-0.001526	-0.004883
37.6	-0.020294	-0.21683	0.081024	-0.003204	-0.001984	-0.046082	0.1088	0.001526	0.006866	-0.05661	-0.024567	0.008087	-0.11154	0.11963	-0.053864	0.007172	-0.012207	0.092621	-0.12573	0.066833	0.058441	0.011597	0.009918	-0.017395	0.034943	-0.009155	0.062256	-0.000763	0.14648	0.025635	-0.00351	-0.005493
37.601	-0.017548	-0.20142	0.1152	-0.00885	-0.006561	-0.030365	0.0737	0.013123	-0.052795	-0.050354	-0.016174	0.005188	-0.025482	0.002136	-0.18372	0.005188	-0.019531	0.085754	-0.090332	-0.011292	0.065765	0.011749	0.006866	-0.091705	0.014801	-0.007019	-0.3154	-0.006866	0.22842	0.11719	-0.008698	-0.004425
37.602	-0.012665	-0.16846	0.092926	0.015564	-0.010834	-0.002136	-0.020447	-0.006561	0.007935	-0.019684	0.000458	0.007782	-0.06424	0.024261	-0.1535	-0.005341	0.00061	0.050812	-0.17944	-0.042114	0.061798	0.003662	0.005341	-0.096588	0.019379	-0.000916	-0.33691	-0.010376	0.17593	0.036774	-0.002441	-0.018463
37.603	-0.0177	-0.1062	0.078888	0.009613	-0.007324	0.050964	-0.09201	-0.004883	0.058289	-0.022583	0.000153	0.000763	0.048676	0.11581	-0.058594	-0.000916	-0.006104	0.050201	-0.16998	-0.020752	0.058441	0.007477	-0.000763	-0.081635	0.011902	-0.00946	0.031433	0.00412	0.078125	0.007782	-0.006104	-0.006714
37.604	-0.028534	-0.12787	0.033112	-0.001526	-0.049591	0.0383	-0.06134	0.012665	0.05661	-0.026245	-0.024414	0.00412	0.20096	0.049591	-0.040436	0.011139	-0.005798	0.061035	-0.04303	-0.013733	0.06485	0.019836	0.011139	-0.03952	0.001526	-0.019989	0.50919	-0.003357	-0.017548	0.038757	0.001831	-0.019073
37.605	-0.034637	-0.12344	-0.017395	0.001984	-0.051727	0.002136	-0.003204	-0.001831	0.033417	-0.001984	-0.015259	0.004425	0.36957	0.026245	0.012054	0.007324	-0.014191	0.054169	-0.062561	-0.13489	0.054779	0.003967	0.022125	-0.034485	0.01358	-0.019684	0.4097	-0.004425	-0.050812	-0.021667	-0.002441	-0.013123
37.606	-0.00351	-0.14282	0.032349	0.003204	-0.028992	-0.043488	0.020294	-0.032654	0.011902	-0.023804	-0.006256	0.005035	0.27252	0.11932	0.13397	0.009308	-0.011292	0.056305	-0.15106	-0.19318	0.059967	0.011292	-0.003357	0.005188	0.02121	-0.01297	0.1944	-0.002747	0.021515	-0.10376	-0.00473	-0.007935
37.607	0.022736	-0.12146	-0.006409	0.00061	0.040283	-0.049286	0.007477	-0.037384	-0.011749	-0.096741	-0.014648	0.007782	0.065002	0.19928	0.14557	0.009308	-0.003662	0.031281	-0.39291	-0.11154	0.054016	0.004883	-0.00061	0.006104	0.043945	0.00061	-0.36896	-0.001526	0.051117	-0.22629	-0.001678	-0.004425
37.608	0.014191	-0.099792	-0.069275	-0.007019	0.05249	-0.027313	0.031586	-0.019836	-0.060883	-0.054932	0.013885	-0.000916	-0.063782	0.071564	-0.014343	0.010071	-0.012512	0.013275	-0.28229	-0.025635	0.065765	0.033417	-0.024109	0.055847	0.027466	-0.000305	-0.72693	0.002747	0.14481	-0.13046	-0.000763	-0.01297
37.609	0.016937	-0.090332	-0.15182	-0.001984	0.060577	0.027313	-0.000916	0.004272	-0.054321	-0.053406	0.008087	0.005188	-0.11231	0.1004	0.034485	0.010529	-0.012054	-0.014038	0.13489	0.014801	0.056915	0.001678	-0.023041	-0.023041	0.036926	-0.00946	-0.53619	-0.005493	0.24933	0.027618	-0.003815	-0.014343
37.61	0.012665	-0.080261	-0.16922	0.010376	0.052032	0.089722	0.000305	0.020599	-0.052185	-0.019531	0.014191	0.005798	-0.31494	0.093842	0.063934	-0.001373	0.004425	-0.012665	0.059204	0.15442	0.066681	0.026703	-0.060883	-0.022736	0.006256	-0.002136	-0.13855	0.001984	0.26657	-0.054474	0.002899	-0.011444
37.611	0.004272	-0.095215	-0.17288	0.032501	0.005951	0.087433	0.01297	0.027771	-0.040436	-0.00946	-0.001678	0.002441	-0.040741	0.018921	0.051727	0.00061	0.031738	0.008087	-0.09903	0.18494	0.061188	0.011902	-0.050812	0.001373	0.033264	0	0.27832	0.000763	-0.31662	-0.18524	-0.005493	-0.007935
37.612	0.003357	-0.084839	0.030212	0.026093	-0.033417	0.04776	-0.018158	0.022736	0	-0.010986	0.001068	0.010223	0.21698	-0.081024	0.018311	0.001221	0.020752	0.011902	-0.22446	0.093536	0.054321	0.032196	-0.023041	-0.03006	0.029907	-0.000305	0.61386	0.004425	-0.095062	-0.16342	-0.002441	-0.007935
37.613	0.008698	-0.10117	0.12344	0.029449	-0.063629	0.019684	-0.013275	0.010223	0.075989	-0.013885	0.010986	-0.000763	-0.074463	-0.053406	0.013275	0.003357	0.007019	-0.02243	-0.19089	0.1181	0.043488	0.037689	-0.021057	-0.060272	0.043945	-0.012512	1.0387	-0.00946	0.3064	-0.096893	-0.005493	-0.005493
37.614	0.01358	-0.080261	0.17822	0.030518	-0.024109	-0.031281	0.009308	-0.001984	0.18585	0.018311	-0.010071	0.009155	0.014496	-0.040283	-0.015411	0.008087	0.00412	-0.006866	-0.16769	0.070801	0.041046	0.04776	-0.055542	-0.074768	0.038147	-0.014648	1.0663	0.001373	0.26184	-0.003662	-0.007019	0.00412
37.615	-0.009155	-0.094757	0.2095	0.017242	0.01358	-0.02533	-0.033875	0.003815	0.19943	0.034943	-0.005188	0.000305	0.13779	0.025787	-0.016174	0.007935	0.000153	-0.011292	-0.22186	0.093536	0.03891	0.041046	-0.045624	-0.041656	0.025635	0.000305	0.033722	0.003662	0.29129	-0.072327	-0.005493	-0.006714
37.616	-0.023346	-0.10376	0.14923	0.010681	0.026245	0.058594	-0.018768	0.000763	0.06485	0.036469	-0.00946	0.005646	0.077515	0.075378	-0.029297	0.010986	-0.018005	0.007019	-0.20798	0.07843	0.040588	0.058746	0.057068	-0.015564	0.048065	0.003815	-0.67886	0.002747	0.1532	-0.071869	0.00061	0.000916
37.617	-0.030212	-0.056152	0.18356	0.007172	0.018616	0.054321	-0.016022	-0.002899	0.14282	0.010986	-0.008698	0.003815	0.059204	0.058289	-0.037231	0.003967	-0.026855	-0.032043	-0.23987	0.034332	0.045013	0.07019	-0.042419	0.028076	0.040436	-0.003052	-0.97733	0.002289	-0.40863	0.068512	-0.006866	-0.005035
